<svg xmlns="http://www.w3.org/2000/svg" width="375" height="164" viewBox="0 0 375 164">
  <defs>
    <style>
      .cls-1 {
        fill: #fff;
      }

      .cls-1, .cls-2 {
        fill-rule: evenodd;
      }

      .cls-2 {
        fill: #c8f50a;
      }
    </style>
  </defs>
  <path id="no_fcks_given" data-name="no fcks given" class="cls-1" d="M182.179,1.8H171.123V26.827L148.074,1.8H137.019V42.809h11.055V17.72l23.049,25.089h11.056V1.8ZM219,1.074c-13.066,0-23.518,9.589-23.518,21.229,0,11.7,10.452,21.229,23.518,21.229,12.931,0,23.518-9.529,23.518-21.229C242.521,10.664,231.934,1.074,219,1.074Zm0,9.227c7.3,0,13.333,5.368,13.333,12,0,6.694-6.03,12.062-13.333,12.062-7.437,0-13.468-5.368-13.468-12.062C205.535,15.669,211.566,10.3,219,10.3ZM115.216,52.183H80.308V93.194H91.3V79.866h19.967V70.759H91.3V61.35h23.92V52.183Zm71.827,26.235c-2.211,3.619-6.365,6.212-11.994,6.212-7.973,0-13.534-5.73-13.534-12.243,0-6.755,5.561-12,13.534-12,5.763,0,9.984,2.473,12.128,6.212l9.313-4.885c-4.087-6.152-11.725-10.253-21.441-10.253-14.271,0-24.657,9.529-24.657,20.928,0,12.122,10.386,21.531,24.657,21.531,9.649,0,17.22-4.523,21.307-10.675Zm64.4-26.235h-13.8L220.222,70.216V52.183H209.234V93.194h10.988V83.967l7.84-7.72,12.462,16.947H254.8L235.767,68.708Zm29.7-.724c-10.386,0-18.56,5.548-18.56,13.027,0,9.107,11.993,11.4,18.828,12.846,4.221,0.9,8.04,1.809,8.04,4.4,0,1.749-1.809,3.619-6.7,3.619-9.046,0-9.917-6.514-9.917-6.514H261.911c0,6.393,5.963,15.078,20.235,15.078,10.653,0,18.292-4.885,18.292-12.725,0-9.047-10.118-11.218-17.287-12.906C276.719,66.778,273.7,65.994,273.7,64c0-2.352,4.021-3.679,7.3-3.679,4.69,0,7.37,2.774,7.37,4.825H299.3C299.3,58.757,293,51.459,281.141,51.459ZM91.112,101.844c-14.339,0-24.724,9.831-24.724,21.23,0,11.036,9.715,21.229,24.791,21.229,13.334,0,20.5-8.444,20.838-9.047v-15.2H88.432v7.6H102.3v3.981c-2.412,2.05-6.3,3.437-11.19,3.437-7.973,0-13.669-5.608-13.669-12.122,0-6.815,5.561-11.821,13.535-11.821,5.226,0,8.777,1.448,11.056,4.041l9.514-4.342C106.992,105.4,99.89,101.844,91.112,101.844Zm46.855,0.724H126.978v41.011h10.989V102.568Zm64.322,0H190.162l-14.071,29.311-14.137-29.311H149.826l20.168,41.011h12.061Zm11.98,0v41.011h34.908v-9.167h-23.92v-7.056h19.967v-8.564H225.257v-7.057h23.92v-9.167H214.269Zm95,0H298.21V127.6l-23.049-25.029H264.105v41.011h11.056V118.49l23.049,25.089h11.055V102.568Z"/>
  <path id="_" data-name="*" class="cls-2" d="M131.836,84.152h1.4l1.2-1.526,0.2-2.783-0.2-.628,0.2-1.077,0.7-1.706,0.8-.449,0.8,0.718,0.2-.449,0.9-.539,0.3,0.359h0.3l0.4,0.449h1.4l0.4,0.359,1.9,0.449h1.4l0.6-.629,1-.179V75.8l-0.5-.359,0.3-.629-0.4-.539-1.9-1.257h-1.2l-0.4-.269-1-.18-0.2-.449h-0.8l-0.9-.808-1.1-1.975,0.5-.269,0.6-1.347,1.5-1.167,1.1-1.886-0.3-.539,0.6-.988-0.3-.18h-0.7v-0.9l-0.7-.269-0.7.359h-0.6l-2.095,1.706,0.1,0.629-0.4.359h-0.6l-0.3.9-0.7.359-0.5.808-0.9.629h-0.5V67.183h-0.6l-1,.539-1.1-1.8V65.3l-2.993-2.245V62.6l-1.1-.718-0.4.269h-1.5l-0.4,1.885,0.9,1.706,0.6,0.269,0.3,1.077,1.8,0.988v1.167l0.4,1.616,0.5,0.269v0.449l-1.1-.269-0.5.808-2,.449-2.593,1.257h-0.9l-0.7.269v0.539h-0.5v1.526l1.8,1.078,1.2-.539h0.7l1.4-.629h0.6l0.6-.269,2.694-.18v0.539l1.695,0.628v1.167l0.4,0.808h-0.7l0.9,4.22,0.7,0.269v0.9Z"/>
</svg>
