<svg xmlns="http://www.w3.org/2000/svg" width="375" height="164" viewBox="0 0 375 164">
  <defs>
    <style>
      .cls-1 {
        fill: #fff;
      }

      .cls-1, .cls-2 {
        fill-rule: evenodd;
      }

      .cls-2 {
        fill: #eb2599;
      }
    </style>
  </defs>
  <path id="pretty_" data-name="pretty " class="cls-1" d="M55.879,29.681H26.134v40.5H40.208V57.443H55.879c12.539,0,18.892-4.6,18.892-13.674V43.253C74.771,34.25,68.418,29.681,55.879,29.681Zm4.3,14.038c0,0.784,0,2.868-4.508,2.868H40.212V40.643H55.674c4.508,0,4.508,2.121,4.508,2.918v0.157Zm70.719-.207V42.995c0-9.1-6.357-13.706-18.892-13.706H82.264V70.181H96.338V57.318H108L115.3,70.185h15.337L122.3,55.769C127.97,53.727,130.9,49.661,130.9,43.511ZM96.338,40.353H111.8c4.508,0,4.508,2.144,4.508,2.951V43.46c0,0.793,0,2.9-4.508,2.9H96.338v-6Zm57.113,14.522h28.512V43.76H153.451V40.348h28.512V29.289H139.5V70.181h42.46V58.909l-28.512,0V54.875ZM188.59,40.814h16.458V70.181h14.178V40.814h16.513v-11.4H188.59v11.4Zm52.818,0h16.458V70.181h14.178V40.814h16.513v-11.4H241.408v11.4Zm81.268,2.13L311.4,29.289H293.829l21.6,25.268V70.181h13.924V54.548l21-25.259h-16.2Z"/>
  <path id="social" class="cls-1" d="M70.876,109.091c-3.35-1.857-8.558-2.825-15.923-2.964l-6.433-.1a25.7,25.7,0,0,1-5.512-.526,4.648,4.648,0,0,1-2.054-.793,1.1,1.1,0,0,1-.251-0.788,1.314,1.314,0,0,1,.209-0.825,5.686,5.686,0,0,1,2.259-.775,27.056,27.056,0,0,1,6.018-.5h1.786a23.3,23.3,0,0,1,4.237.336,14.436,14.436,0,0,1,2.991.738,3.674,3.674,0,0,1,2.158,1.89l0.259,0.682,14.342,0.346V104.68a11.22,11.22,0,0,0-.632-3.785,10.391,10.391,0,0,0-2.325-3.582,13.615,13.615,0,0,0-4.229-2.941,27.832,27.832,0,0,0-6.65-1.886,55.077,55.077,0,0,0-9.427-.719H48.149a52.171,52.171,0,0,0-9.022.692,25.521,25.521,0,0,0-6.29,1.811A12.453,12.453,0,0,0,28.88,97.1a9.264,9.264,0,0,0-2.091,3.489,12.628,12.628,0,0,0-.515,3.684v0.452c0,7.648,6.625,11.7,19.691,12.06l6.583,0.152a33.7,33.7,0,0,1,6.328.6,4.98,4.98,0,0,1,2.343.9,1.69,1.69,0,0,1,.339,1.148,1.749,1.749,0,0,1-.209.9,2.616,2.616,0,0,1-1.033.825,9.132,9.132,0,0,1-3.095.807,29.671,29.671,0,0,1-4.86.318H49.579c-7.842,0-9.231-.9-9.414-3.591l-0.072-1.028-14.362-.032,0.067,1.184a18.524,18.524,0,0,0,.377,2.808,11.762,11.762,0,0,0,1.92,3.872,12.711,12.711,0,0,0,4.011,3.6,24.432,24.432,0,0,0,6.876,2.424,47.142,47.142,0,0,0,10.193.978H52.72a57.945,57.945,0,0,0,9.866-.742,26.427,26.427,0,0,0,6.8-1.969,12.555,12.555,0,0,0,4.178-3.13,10.337,10.337,0,0,0,2.125-3.762,14.693,14.693,0,0,0,.51-4.011v-0.7a9.89,9.89,0,0,0-5.32-9.248h0Zm70.215-4.725a16.493,16.493,0,0,0-2.015-3.78,17.271,17.271,0,0,0-3.426-3.435,20.735,20.735,0,0,0-5.057-2.854,34.1,34.1,0,0,0-7.022-1.84,56.3,56.3,0,0,0-9.218-.692h-1.627a57.144,57.144,0,0,0-9.264.692,34.37,34.37,0,0,0-7.077,1.84,20.92,20.92,0,0,0-5.056,2.854,17.241,17.241,0,0,0-3.425,3.435,15.588,15.588,0,0,0-2,3.821,18.578,18.578,0,0,0-.958,3.647,23.6,23.6,0,0,0-.217,3.306v1.507a24.316,24.316,0,0,0,.217,3.273,18.421,18.421,0,0,0,.958,3.679,16.01,16.01,0,0,0,1.995,3.84,17.225,17.225,0,0,0,3.455,3.485,21.513,21.513,0,0,0,5.048,2.905,33.532,33.532,0,0,0,7.056,1.895,55.423,55.423,0,0,0,9.268.714h1.627a54.389,54.389,0,0,0,9.243-.719,33.24,33.24,0,0,0,7.027-1.895,21.549,21.549,0,0,0,5.048-2.9,16.473,16.473,0,0,0,3.438-3.5,17.192,17.192,0,0,0,1.982-3.817,17.637,17.637,0,0,0,.987-3.688,24.2,24.2,0,0,0,.218-3.278v-1.5a24.582,24.582,0,0,0-.218-3.324,16.9,16.9,0,0,0-.987-3.67h0Zm-13.434,8.049a7.961,7.961,0,0,1-.56,2.978,8.543,8.543,0,0,1-1.987,2.812,10.17,10.17,0,0,1-4.37,2.25,25.974,25.974,0,0,1-6.437.876c-0.347.01-.962,0-1.184,0.01a26.06,26.06,0,0,1-6.905-.913,9.783,9.783,0,0,1-4.329-2.282,9.043,9.043,0,0,1-1.953-2.854,7.957,7.957,0,0,1-.561-2.978v-0.6c0-5.661,4.438-8.5,13.564-8.672h0.4c0.376,0,.882.005,1.167,0.014a27.9,27.9,0,0,1,5.1.585,15.039,15.039,0,0,1,4.186,1.471,7.863,7.863,0,0,1,2.359,2.029,7.141,7.141,0,0,1,1.2,2.236,8.48,8.48,0,0,1,.314,2.337v0.705h-0.005Zm63.887,3.218c-1.247,3.8-5.6,5.716-12.928,5.716a21.523,21.523,0,0,1-6.6-.907,9.488,9.488,0,0,1-4-2.259,9.759,9.759,0,0,1-1.974-2.928,7.9,7.9,0,0,1-.606-3.043v-0.6a8.553,8.553,0,0,1,.539-3.093,7.752,7.752,0,0,1,1.832-2.674,9.14,9.14,0,0,1,3.94-2.024,25.073,25.073,0,0,1,6.767-.792,28.04,28.04,0,0,1,5.9.553,16.148,16.148,0,0,1,3.777,1.194,7.019,7.019,0,0,1,2.02,1.526,7.233,7.233,0,0,1,1.012,1.272,4.607,4.607,0,0,1,.305.862l0.21,0.82h14.58v-1.663a11.675,11.675,0,0,0-2.894-7.764A17.306,17.306,0,0,0,198.8,95.81a26.924,26.924,0,0,0-7.8-2.886,50.505,50.505,0,0,0-11.4-1.157h-2.112a45.219,45.219,0,0,0-11.624,1.342,24.112,24.112,0,0,0-7.838,3.374,16.857,16.857,0,0,0-4.541,4.888,17.088,17.088,0,0,0-2.23,5.177,22.918,22.918,0,0,0-.489,4.813v1.456a22.986,22.986,0,0,0,.243,3.288,17.7,17.7,0,0,0,1.045,3.72,18.945,18.945,0,0,0,2,3.794,17.268,17.268,0,0,0,3.359,3.518,20.811,20.811,0,0,0,4.851,2.9,30.875,30.875,0,0,0,6.634,1.9,47.365,47.365,0,0,0,8.582.724h2.112a48.953,48.953,0,0,0,11.289-1.185,27.208,27.208,0,0,0,7.8-2.936,17.6,17.6,0,0,0,4.663-4.094,13.963,13.963,0,0,0,2.431-4.3,12.838,12.838,0,0,0,.593-3.762v-1.669H191.544v0.917Zm39.592,17.025V91.767H217.087v40.891h14.049ZM259.35,91.767l-19.77,40.891h14.145L257,125.609h23.735l3.279,7.049h14.145L278.4,91.767H259.35Zm2.769,22.811,5.521-11.839h2.467l5.521,11.839H262.119Zm58.694-22.811H306.739v40.891h40.666V120.764H320.813v-29Z"/>
  <path id="Color_Fill_1" data-name="Color Fill 1" class="cls-2" d="M197.687,86.846c2.385-.264,5.274-1.818,7.276-2.688,5.481-2.383,10.791-4.475,15.958-7.168,3.045-1.587,6.858-4.4,11.234-3.328l0.638,0.9c0,2.538-1.771,3.023-3.191,4.1l-1.277,1.408a23.438,23.438,0,0,0-4.979,6.528H223.6c1.355-1.307,3.651-2.214,5.234-3.328,0.79-.556,1.5-1.522,2.553-1.792,1.49-.382,4.241,1.779,5.234,2.3,3.492,1.849,9.864,4.695,15.191,2.944,5.521-1.814,9.7-5.514,13.915-8.7,1.945-1.472,3.006-4.4,6.256-4.48l0.893,0.9c0.085,4.683-3.665,6.006-3.829,10.624,1.665-.092,3.183-1.21,4.34-1.92,0.856-.525,1.707-0.752,2.553-1.28,2.719-1.7,5.416-3.524,8.043-5.376,0.992-.7,2.471-2.43,3.7-2.688,0.467,0.658,1.518.85,1.659,1.792-0.843,1-.987,2.686-1.532,3.968-0.94,2.215-1.714,4.573-2.68,6.912-1.646,3.983-3.079,8.286-4.724,12.288-0.469,1.142-.553,2.185-1.021,3.328a75.248,75.248,0,0,0-3.7,10.88h0.127V112.7c0.977-1,1.421-2.63,2.171-3.84,1.66-2.681,3.421-5.355,5.234-7.936a91.43,91.43,0,0,1,20.3-20.48c2.341-1.688,4.535-3.337,7.021-4.992,1.552-1.033,3.256-2.272,5.745-1.664l0.638,0.9c0.03,1.908-.872,2.262-1.4,3.456q-0.512,1.536-1.022,3.072c-0.649,2.148-.471,4.349-1.021,6.656-0.478,2.006-.383,4.259-0.894,6.4-0.226.952-.506,1.988-0.638,2.944H312.2a9.188,9.188,0,0,1,2.3-1.664c2.028-1.429,4.057-2.9,6.128-4.352,6-4.218,12.033-8.489,18.128-12.672,1.993-1.368,5.146-4.522,7.532-5.12a3.132,3.132,0,0,1,1.659.256,2.354,2.354,0,0,1,.766,1.664c-0.56.7-.681,1.523-1.4,2.048-1.822,1.325-3.982,2.132-5.872,3.328-3.313,2.1-6.722,4.255-9.958,6.528-4.586,3.222-9.044,6.554-13.532,9.856-2.364,1.74-4.51,4.249-7.149,5.632a12.714,12.714,0,0,1-1.276,4.1c-1.988,4.848-4.65,9.352-11.49,7.68-0.883-1.353-1.282-2.553-.255-4.224a27.762,27.762,0,0,1,6.894-7.168l0.893-1.024c0.864-.651,2.569-1.339,2.681-2.688,0.827-1.3.494-4.246,0.894-6.016,0.99-4.381,1.013-9.46,1.915-13.7h-0.256a17.1,17.1,0,0,1-2.808,1.792c-1.816,1.21-3.6,2.532-5.362,3.84-2.013,1.493-3.64,3.622-5.617,5.12a23.487,23.487,0,0,0-4.468,4.48L289.857,97.6c-2.308,3.063-4.817,6.051-6.894,9.344a119.521,119.521,0,0,0-8.68,17.408q-1.533,4.479-3.064,8.96l-1.149.9a2.791,2.791,0,0,1-2.681-1.152c-0.49-5.172,1.716-10.441,3.064-14.464,2.109-6.3,3.938-12.487,6.383-18.432,0.9-2.192,1.272-4.338,2.17-6.528,1.114-2.719,1.91-5.628,3.064-8.448a20,20,0,0,0,1.659-4.48H283.6c-0.8,1.122-2.541,1.786-3.7,2.56-2.912,1.941-5.942,4.214-9.575,5.376-4.02,1.286-6.053-2.4-4.723-6.016h-0.128c-1.341,1.37-3.308,2.163-4.979,3.2-4.022,2.5-10.016,5.847-16.978,4.1a40.463,40.463,0,0,1-8.681-2.816c-0.7-.364-2.417-1.754-3.064-1.536a9.429,9.429,0,0,0-2.043,1.28c-2.131,1.332-6.082,3.88-9.191,3.2-2.352-3.417,1.985-8.134,3.447-10.368h-0.256a4.513,4.513,0,0,1-1.276.512l-4.979,2.176c-4.706,2.055-9.565,4.154-14.425,6.144-1.165.477-5.964,2.2-7.149,1.408-1.124-.347-1.167-1.293-1.277-2.688-0.239-3.042,1.37-6.1,1.66-9.088h-0.128V78.4a13.425,13.425,0,0,0-2.681,3.072l-2.681,2.56c-2.585,2.593-5.5,5.495-9.574,6.528a3.944,3.944,0,0,1-4.851-4.608c0.736-2.851,2.36-4.842,3.7-7.04h-0.256a10.807,10.807,0,0,1-2.425.9c-2.464,1.019-5.087,1.757-7.66,2.816C162.24,85.7,154.246,87.6,145.6,89.662l-3.192.256a14.2,14.2,0,0,1-4.723,0c-0.885-.2-1.492-0.013-2.3-0.256a7.593,7.593,0,0,1-5.617-5.76c-0.445-1.818.4-3.44,0.511-4.864h-0.256a11.506,11.506,0,0,1-2.425,1.024c-2.066.91-4.208,1.862-6.383,2.816-4.968,2.179-9.671,4.713-14.936,6.656-2.554.942-7.265,1.819-8.937-.512a5.8,5.8,0,0,1-.511-4.224,48.1,48.1,0,0,1,3.319-7.3H99.9c-1.128.771-3.115,0.536-4.6,0.9-3.117.758-10.892,1.168-14.426,0.384-1.139-.253-2.379-0.314-3.574-0.64a8.369,8.369,0,0,0-1.66-.512,7.412,7.412,0,0,0-1.4.768c-1.284.56-2.6,1.031-3.83,1.536-3.1,1.27-6.727,1.608-10.213,2.432l-3.191.256a34.616,34.616,0,0,1-10.851,0c-1.461-.324-2.883-0.1-4.213-0.384-1.233-.26-4.516.419-5.617,0.64-0.772,1.828-1.659,3.757-2.425,5.5-0.472,1.075-.743,2.462-1.66,3.072a2.95,2.95,0,0,1-1.66.384,1.5,1.5,0,0,0-.638-0.256,4.645,4.645,0,0,1-.766-1.152c-0.451-1.608,1.982-5.112,2.553-6.272H31.346a7.4,7.4,0,0,1-2.17.9c-1.95.845-3.6,2.605-6.128,2.048a2.945,2.945,0,0,1-.894-2.3c0.264-.264.356-0.788,0.638-1.024,1.015-.847,4.793-1.948,6.255-2.432,1.209-.4,3.591-0.589,4.468-1.28,0.985-1.162,1.174-3.25,1.787-4.736a94.727,94.727,0,0,0,3.319-10.112l1.021-6.272c0.578-2.488-.237-5.766.255-7.936a6.176,6.176,0,0,1,1.277-.768,30.035,30.035,0,0,1,8.426,0l4.085,0.128c1.461,0.316,3.125.038,4.723,0.384,3.843,0.833,9.189.64,13.66,0.64l9.192-.128,5.489-.64c2.3-.579,4.38-1.374,6.766-0.768a2.754,2.754,0,0,1,.638,1.664,2.351,2.351,0,0,0-.383.9c-0.964.254-1.7,1-2.553,1.28l-3.191.256c-3.613.8-8.047,0.64-12.255,0.64l-12.511-.128-7.4-.128-12.894-.9a60.489,60.489,0,0,1-3.319,20.1L37.6,79.422H38.5c0.857-.526,5.409-0.069,6.255.128l2.425,0.128a27.4,27.4,0,0,0,9.575,0l2.3-.128c3.977-.944,7.741-1.607,11.106-3.072l2.553-1.408V74.43a2.436,2.436,0,0,1,1.532-1.152c2.326-.6,4.319,1.046,6,1.664,1.867,0.686,4.227.317,6.255,0.768a12.141,12.141,0,0,0,4.085-.128h2.043l4.851-.64c1.841-.47,5.388-1.508,7.021-1.408q0.192,1.024.383,2.048a12.72,12.72,0,0,0-2.042,3.84c-0.96,2.192-2.464,4.252-2.553,7.3a3.191,3.191,0,0,0,1.021.128l2.681-.384,4.978-1.536c5.956-2.454,11.8-4.909,17.362-7.808,1.366-.712,2.857-1.351,4.213-2.176a12.372,12.372,0,0,1,3.064-1.664,3.114,3.114,0,0,1,1.659.256,2.707,2.707,0,0,1,.894,1.92c-0.378.524-.424,1.235-0.766,1.792a15.363,15.363,0,0,0-2.043,4.224,4.521,4.521,0,0,0,.128,2.816c0.975,3.729,11.217,2.8,14.936,1.792l9.064-2.3c6.858-2.283,13.6-4.8,19.915-7.552a32.273,32.273,0,0,0,3.957-1.664,11.571,11.571,0,0,1,2.681-1.408,3.094,3.094,0,0,1,2.936,1.152c0.928,1.2-.617,3.255-1.149,3.968-1.678,2.25-5.423,5.315-5.744,8.7,3.432-.118,7.619-4.694,9.574-6.656a67.182,67.182,0,0,0,6.639-7.552,25.7,25.7,0,0,0,2.425-2.944l2.043-6.656c1.975-5.328,3.607-10.935,6-15.872,1.918-3.958,3.288-7.939,5.744-11.264,0.612-.828,2.045-2.673,3.575-1.664,1.483,0.491,2.5,3.568,1.915,6.016a46.441,46.441,0,0,1-2.553,7.936,107.241,107.241,0,0,1-8.937,16c-1.072,1.616-2.188,3.25-3.319,4.864a20.462,20.462,0,0,0-1.532,1.92c-0.595,1.15-.565,2.456-1.021,3.712A46.019,46.019,0,0,0,197.687,86.846ZM214.538,39.1a9.321,9.321,0,0,1-1.149,2.176c-0.84,1.607-1.593,3.383-2.3,4.992-1.857,4.237-3.323,8.548-5.106,12.8h0.127V58.942c1.078-1.172,1.574-2.822,2.426-4.224a84.617,84.617,0,0,0,4.979-10.24C213.835,43.749,215.019,39.9,214.538,39.1Zm-58.6,17.408a6.37,6.37,0,0,1,1.4.128c0.474,0.811.832,2.283-.127,2.944-1.474,1.016-3.763.447-5.873,0.9-3.339.711-7.139,0.454-10.34,1.152-1.694.369-4.637,0.406-5.106-.9a1.941,1.941,0,0,1,.638-2.688c0.515-.428,4.323-0.128,5.617-0.128a48.679,48.679,0,0,0,9.957-.64C153.531,56.964,154.988,57.248,155.942,56.51ZM306.453,106.3c-1.816,1.911-4.282,3.244-5.745,5.5h1.021c0.406-.314.952-0.356,1.405-0.64a8.262,8.262,0,0,0,2.553-3.2C305.9,107.619,306.644,106.587,306.453,106.3Z"/>
</svg>
