<?xml version="1.0" encoding="utf-8"?>
<!-- Generator: Adobe Illustrator 22.1.0, SVG Export Plug-In . SVG Version: 6.00 Build 0)  -->
<svg version="1.1" id="Layer_1" xmlns="http://www.w3.org/2000/svg" xmlns:xlink="http://www.w3.org/1999/xlink" x="0px" y="0px"
	 viewBox="0 0 30 30" style="enable-background:new 0 0 30 30;" xml:space="preserve">
<style type="text/css">
	.st0{fill:#FFFFFF;}
</style>
<path class="st0" d="M15.2,29.1c-0.1,0-0.2,0-0.2,0h0c0,0-0.1,0-0.1,0c-1.8,0-2.9-0.8-4-1.6c-0.8-0.5-1.5-1-2.3-1.2
	c-0.4-0.1-0.8-0.1-1.2-0.1c-0.7,0-1.3,0.1-1.7,0.2c-0.3,0-0.5,0.1-0.6,0.1c-0.2,0-0.4,0-0.4-0.3c-0.1-0.2-0.1-0.5-0.2-0.7
	c-0.1-0.6-0.2-0.9-0.5-1c-2.8-0.4-3.6-1-3.8-1.5c0-0.1,0-0.1,0-0.2c0-0.2,0.1-0.3,0.3-0.3c4.3-0.7,6.3-5.1,6.4-5.3c0,0,0,0,0,0
	c0.3-0.5,0.3-1,0.2-1.4c-0.3-0.7-1.3-1-1.9-1.2c-0.2,0-0.3-0.1-0.4-0.1c-1.3-0.5-1.4-1-1.3-1.3c0.1-0.5,0.7-0.8,1.2-0.8
	c0.1,0,0.3,0,0.4,0.1c0.6,0.3,1.1,0.4,1.5,0.4c0.6,0,0.9-0.3,0.9-0.3c0-0.3,0-0.6-0.1-0.9c-0.1-2-0.3-4.6,0.4-6
	c1.9-4.4,6.1-4.7,7.3-4.7c0,0,0.5,0,0.5,0l0.1,0c1.2,0,5.3,0.3,7.3,4.7c0.6,1.5,0.5,4,0.4,6l0,0.1c0,0.3,0,0.6,0,0.8
	c0,0,0.3,0.3,0.8,0.3h0c0.4,0,0.9-0.2,1.5-0.4c0.2-0.1,0.3-0.1,0.5-0.1c0.2,0,0.4,0,0.5,0.1l0,0c0.4,0.2,0.7,0.5,0.7,0.8
	c0,0.3-0.2,0.8-1.3,1.2c-0.1,0-0.3,0.1-0.4,0.1c-0.6,0.2-1.6,0.5-1.9,1.2c-0.2,0.4-0.1,0.8,0.2,1.4c0,0,0,0,0,0
	c0.1,0.2,2,4.6,6.4,5.3c0.2,0,0.3,0.2,0.3,0.3c0,0.1,0,0.1,0,0.2c-0.2,0.4-1,1-3.8,1.4c-0.2,0-0.3,0.3-0.5,1c0,0.2-0.1,0.5-0.2,0.7
	c-0.1,0.2-0.2,0.3-0.4,0.3h0c-0.1,0-0.4,0-0.6-0.1c-0.5-0.1-1-0.2-1.7-0.2c-0.4,0-0.8,0-1.2,0.1c-0.8,0.1-1.6,0.6-2.3,1.2
	C18.1,28.3,17,29.1,15.2,29.1z"/>
</svg>
